<svg width="64" height="64" viewBox="0 0 64 64" fill="none" xmlns="http://www.w3.org/2000/svg">
<path d="M34.9003 38.4016C35.7344 38.0335 58.6382 28.1004 59.896 27.5571C61.7034 26.7765 63.0205 25.6253 63.0205 23.5409C63.0205 21.4564 61.7034 20.3053 59.896 19.5246C58.6382 18.9814 35.7344 9.04824 34.9003 8.68021C33.9742 8.27159 33.0114 8.00001 32 8C30.9886 7.99999 30.0258 8.27159 29.0997 8.68021C28.2656 9.04824 5.36183 18.9814 4.10402 19.5246C2.29659 20.3053 0.979469 21.4564 0.979462 23.5409C0.979454 25.6253 2.29659 26.7765 4.10401 27.5571C5.36182 28.1004 28.2656 38.0335 29.0997 38.4016C30.0258 38.8102 30.9886 39.0818 32 39.0818C33.0114 39.0817 33.9742 38.8102 34.9003 38.4016Z" fill="url(#paint0_linear_18_4)"/>
<path d="M32 41.9022C30.9886 41.9022 30.0258 41.6306 29.0997 41.222C28.5806 40.9929 19.5146 37.0596 12.4372 33.9902V44.546C12.4372 50.2879 23.8744 54.1925 32 54.1925C40.1255 54.1925 51.5628 50.2879 51.5628 44.546V33.9902C44.4854 37.0596 35.4194 40.9929 34.9003 41.222C33.9742 41.6306 33.0114 41.9022 32 41.9022Z" fill="url(#paint1_linear_18_4)"/>
<path d="M55.4934 35.8695V32.4307L58.1351 31.2575V35.8695C60.5341 36.9084 60.7322 40.0628 58.8535 41.3056C58.6743 41.4242 58.7431 41.6568 58.8535 41.749C58.9949 41.8672 60.0351 42.621 60.0351 43.9835V47.5154C60.0351 48.4298 59.3327 48.8242 58.7006 48.8242L54.928 48.8242C54.2958 48.8242 53.5934 48.4298 53.5934 47.5154V43.9835C53.5934 42.621 54.6336 41.8672 54.775 41.749C54.8854 41.6568 54.9543 41.4242 54.775 41.3056C52.8963 40.0628 53.0944 36.9084 55.4934 35.8695Z" fill="url(#paint2_linear_18_4)"/>
<defs>
<linearGradient id="paint0_linear_18_4" x1="32" y1="8" x2="32" y2="54.1925" gradientUnits="userSpaceOnUse">
<stop stop-color="#00C0FF"/>
<stop offset="1" stop-color="#5558FF"/>
</linearGradient>
<linearGradient id="paint1_linear_18_4" x1="32" y1="8" x2="32" y2="54.1925" gradientUnits="userSpaceOnUse">
<stop stop-color="#00C0FF"/>
<stop offset="1" stop-color="#5558FF"/>
</linearGradient>
<linearGradient id="paint2_linear_18_4" x1="32" y1="8" x2="32" y2="54.1925" gradientUnits="userSpaceOnUse">
<stop stop-color="#00C0FF"/>
<stop offset="1" stop-color="#5558FF"/>
</linearGradient>
</defs>
</svg>
