<svg width="64" height="64" viewBox="0 0 64 64" fill="none" xmlns="http://www.w3.org/2000/svg">
<path fill-rule="evenodd" clip-rule="evenodd" d="M24.6802 29.0685C19.265 14.7454 30.1204 -0.759903 45.7094 1.12621C49.3578 1.49604 48.7682 3.12329 47.7731 4.19579L38.8546 13.1087L41.3129 22.6149L50.7706 25.1588L59.7861 16.1397C60.8482 15.1341 62.4658 14.5316 62.8585 18.1903C64.8413 33.8212 49.299 44.7234 34.9905 39.3843L13.5889 60.6535C6.55458 67.7125 -3.69011 57.4715 3.31727 50.4395L24.6802 29.0685ZM11.2419 55.2681C12.8136 53.6909 10.4818 51.0564 8.61702 52.9277L7.09678 54.5466C5.52507 56.1238 7.8569 58.7583 9.72165 56.887L11.2419 55.2681Z" fill="url(#paint0_linear_2_5)"/>
<defs>
<linearGradient id="paint0_linear_2_5" x1="55.1582" y1="8.2031" x2="3.27713" y2="59.9025" gradientUnits="userSpaceOnUse">
<stop stop-color="#FFDE00"/>
<stop offset="0.999613" stop-color="#FD5900"/>
</linearGradient>
</defs>
</svg>
