<svg width="64" height="64" viewBox="0 0 64 64" fill="none" xmlns="http://www.w3.org/2000/svg">
<path d="M12.5 36.5C12 36 11.283 34.8276 12.5 33.5C17.5367 28.0053 24.7388 25 32.1577 25C39.6261 25 46.8506 27.9596 51.9293 33.5C53.1462 34.8275 52.4293 36 51.9293 36.5C51.9293 36.5 48.2771 40.1297 47.4069 41C46.1207 42.2607 44.9089 41.5999 44.4085 41.1003C41.0035 37.701 36.9884 35.8123 32.1631 35.8123C27.381 35.8123 23.3744 37.7523 20.0207 41.1003C19.5203 41.5999 18.3085 42.2607 17.0224 41C16.1521 40.1297 12.5 36.5 12.5 36.5Z" fill="url(#paint0_linear_10_2)"/>
<path d="M2.34372 26.444C1.84371 25.944 1.12677 24.7715 2.34371 23.444C7.38047 17.9493 18.2148 10.7346 32.1707 10.7346C46.1266 10.7346 56.9422 17.8033 62.0209 23.3437C63.2378 24.6713 62.5209 25.8437 62.0209 26.3437C62.0209 26.3437 58.3687 29.9734 57.4985 30.8437C56.2123 32.1044 55.0005 31.4436 54.5001 30.944C51.0951 27.5447 43.4661 21.4956 32.1707 21.4956C20.8753 21.4956 13.2181 27.6963 9.86446 31.0443C9.36404 31.5439 8.15226 32.2046 6.86611 30.944C5.99585 30.0737 2.34372 26.444 2.34372 26.444Z" fill="url(#paint1_linear_10_2)"/>
<path d="M22.5563 46.8326C22.0563 46.3326 21.3394 45.1602 22.5563 43.8326C28.3857 37.936 35.9369 37.815 41.8079 43.7655C43.0728 45.0475 42.3079 46.2655 41.8079 46.7655C41.8079 46.7655 35.0972 53.554 34.227 54.4242C32.6204 56.0308 31.8056 56.0003 30.2295 54.4242C29.3593 53.554 22.5563 46.8326 22.5563 46.8326Z" fill="url(#paint2_linear_10_2)"/>
<defs>
<linearGradient id="paint0_linear_10_2" x1="32.1823" y1="10.7346" x2="32.1823" y2="55.6178" gradientUnits="userSpaceOnUse">
<stop stop-color="#FFA68D"/>
<stop offset="1" stop-color="#FD3A84"/>
</linearGradient>
<linearGradient id="paint1_linear_10_2" x1="32.1823" y1="10.7346" x2="32.1823" y2="55.6178" gradientUnits="userSpaceOnUse">
<stop stop-color="#FFA68D"/>
<stop offset="1" stop-color="#FD3A84"/>
</linearGradient>
<linearGradient id="paint2_linear_10_2" x1="32.1823" y1="10.7346" x2="32.1823" y2="55.6178" gradientUnits="userSpaceOnUse">
<stop stop-color="#FFA68D"/>
<stop offset="1" stop-color="#FD3A84"/>
</linearGradient>
</defs>
</svg>
