<svg width="45" height="84" viewBox="0 0 45 84" fill="none" xmlns="http://www.w3.org/2000/svg">
<path fill-rule="evenodd" clip-rule="evenodd" d="M10.7211 9.52916C7.68029 12.0118 5.61313 15.734 5.61313 20.8714L5.61313 43.7174H1L1.00001 20.8714C1 14.3387 3.69748 9.30819 7.8036 5.95576C11.8538 2.64896 17.1592 1.05957 22.3651 1.05957C27.5709 1.05957 32.8763 2.64896 36.9265 5.95575C41.0326 9.30819 43.7301 14.3387 43.7301 20.8714V33.8807H20.0457V23.7318C20.0457 22.4579 21.0784 21.4252 22.3523 21.4252C23.6262 21.4252 24.6588 22.4579 24.6588 23.7318V29.2676H39.117V20.8714C39.117 15.734 37.0498 12.0118 34.009 9.52915C30.9123 7.00086 26.6884 5.6727 22.3651 5.6727C18.0417 5.6727 13.8178 7.00086 10.7211 9.52916ZM17.0934 16.7676C15.783 18.0012 14.81 19.9403 14.8556 22.8039L14.8558 22.8222L14.8558 43.7174H10.2427L10.2427 22.8582C10.1832 18.8259 11.5963 15.6068 13.9314 13.4087C16.2343 11.2407 19.2799 10.2098 22.2683 10.2181C25.257 10.2264 28.3093 11.2734 30.6513 13.4181C33.0271 15.5938 34.5453 18.7851 34.6094 22.8038L34.6097 22.8222V23.7318H29.9965V22.8598C29.9474 20.0383 28.9157 18.0839 27.5357 16.8202C26.119 15.5228 24.2053 14.8367 22.2554 14.8312C20.3052 14.8258 18.4395 15.5004 17.0934 16.7676ZM29.8743 39.5653L34.4874 39.5653L34.4874 60.4244C34.547 64.4567 33.1338 67.6758 30.7988 69.874C28.4958 72.0419 25.4502 73.0729 22.4619 73.0645C19.4732 73.0562 16.4208 72.0092 14.0789 69.8645C11.7031 67.6888 10.1849 64.4976 10.1208 60.4788L10.1205 60.4604V59.5509H14.7336V60.4228C14.7828 63.2443 15.8145 65.1987 17.1944 66.4624C18.6111 67.7598 20.5248 68.446 22.4747 68.4514C24.425 68.4569 26.2906 67.7823 27.6367 66.515C28.9471 65.2815 29.9202 63.3424 29.8746 60.4787L29.8743 60.4604L29.8743 39.5653ZM39.117 62.4112L39.117 39.5653H43.7301L43.7301 62.4112C43.7301 68.944 41.0327 73.9744 36.9265 77.3269C32.8763 80.6337 27.571 82.2231 22.3651 82.2231C17.1592 82.2231 11.8539 80.6337 7.80362 77.3269C3.6975 73.9744 1.00003 68.944 1.00003 62.4112V49.4019H24.6844V59.5509C24.6844 60.8247 23.6518 61.8574 22.3779 61.8574C21.104 61.8574 20.0713 60.8247 20.0713 59.5509V54.015H5.61316V62.4112C5.61316 67.5487 7.68031 71.2708 10.7211 73.7535C13.8178 76.2818 18.0417 77.6099 22.3651 77.6099C26.6885 77.6099 30.9123 76.2818 34.0091 73.7535C37.0499 71.2708 39.117 67.5486 39.117 62.4112Z" fill="#FF6600"/>
</svg>
